<svg width="177" height="42" viewBox="0 0 177 42" fill="none" xmlns="http://www.w3.org/2000/svg">
<path d="M56.9785 28.4279C52.5125 28.4279 49.1685 25.4799 49.1685 20.0459C49.1685 14.6779 52.6665 11.5319 56.9785 11.5319C59.3325 11.5319 60.9605 12.5439 62.0165 13.6219L60.2785 15.6899C59.4865 14.9199 58.5845 14.3259 57.0885 14.3259C54.3825 14.3259 52.4905 16.4379 52.4905 19.9359C52.4905 23.4779 54.1185 25.6119 57.3085 25.6119C58.1005 25.6119 58.8925 25.4139 59.3545 24.9959V21.7839H56.4725V19.1219H62.2585V26.4699C61.1365 27.5479 59.2665 28.4279 56.9785 28.4279ZM70.636 28.4279C67.556 28.4279 64.718 26.0299 64.718 21.9819C64.718 17.8679 67.556 15.4919 70.636 15.4919C73.716 15.4919 76.554 17.8679 76.554 21.9819C76.554 26.0299 73.716 28.4279 70.636 28.4279ZM70.636 25.7879C72.308 25.7879 73.254 24.2919 73.254 21.9819C73.254 19.6059 72.308 18.1319 70.636 18.1319C68.964 18.1319 68.018 19.6059 68.018 21.9819C68.018 24.2919 68.964 25.7879 70.636 25.7879ZM84.4075 28.4279C81.3275 28.4279 78.4895 26.0299 78.4895 21.9819C78.4895 17.8679 81.3275 15.4919 84.4075 15.4919C87.4875 15.4919 90.3255 17.8679 90.3255 21.9819C90.3255 26.0299 87.4875 28.4279 84.4075 28.4279ZM84.4075 25.7879C86.0795 25.7879 87.0255 24.2919 87.0255 21.9819C87.0255 19.6059 86.0795 18.1319 84.4075 18.1319C82.7355 18.1319 81.7895 19.6059 81.7895 21.9819C81.7895 24.2919 82.7355 25.7879 84.4075 25.7879ZM97.365 33.4659C94.461 33.4659 92.217 32.4759 92.217 30.2979C92.217 29.2639 92.855 28.3839 93.977 27.7459V27.6359C93.339 27.2179 92.855 26.6019 92.855 25.5679C92.855 24.6219 93.493 23.7859 94.219 23.2579V23.1699C93.361 22.5539 92.591 21.3879 92.591 19.9579C92.591 17.0539 94.945 15.4919 97.563 15.4919C98.245 15.4919 98.905 15.6239 99.411 15.7999H103.855V18.1759H101.743C102.073 18.5939 102.315 19.2759 102.315 20.0459C102.315 22.7959 100.203 24.2259 97.563 24.2259C97.057 24.2259 96.507 24.1159 95.979 23.9399C95.627 24.2259 95.451 24.4899 95.451 24.9959C95.451 25.6779 95.891 26.0079 97.387 26.0079H99.477C102.491 26.0079 104.053 26.8879 104.053 29.0879C104.053 31.5739 101.501 33.4659 97.365 33.4659ZM97.563 22.2239C98.641 22.2239 99.477 21.4539 99.477 19.9579C99.477 18.4619 98.685 17.6919 97.563 17.6919C96.441 17.6919 95.627 18.4619 95.627 19.9579C95.627 21.4539 96.485 22.2239 97.563 22.2239ZM97.849 31.4199C99.697 31.4199 100.973 30.6059 100.973 29.6379C100.973 28.7579 100.247 28.5379 98.927 28.5379H97.431C96.661 28.5379 96.155 28.4719 95.715 28.3619C95.165 28.8019 94.901 29.2859 94.901 29.7919C94.901 30.8259 96.001 31.4199 97.849 31.4199ZM106.158 10.5639H109.37V28.1199H106.158V10.5639ZM118.443 28.4279C115.011 28.4279 112.327 26.0299 112.327 21.9819C112.327 17.9999 115.143 15.4919 118.069 15.4919C121.457 15.4919 123.217 17.9779 123.217 21.3879C123.217 21.9819 123.151 22.5759 123.063 22.8619H115.473C115.737 24.8859 117.035 25.9419 118.883 25.9419C119.917 25.9419 120.775 25.6339 121.655 25.0839L122.755 27.0639C121.523 27.9219 120.027 28.4279 118.443 28.4279ZM120.445 20.7279C120.445 19.0559 119.697 17.9999 118.113 17.9999C116.815 17.9999 115.671 18.9459 115.429 20.7279H120.445ZM136.475 11.8399C140.061 11.8399 142.855 13.0719 142.855 16.9439C142.855 20.6619 140.061 22.3339 136.563 22.3339H134.385V28.1199H131.129V11.8399H136.475ZM136.343 19.7599C138.565 19.7599 139.665 18.8139 139.665 16.9439C139.665 15.0299 138.499 14.4139 136.233 14.4139H134.385V19.7599H136.343ZM145.539 10.5639H148.751V28.1199H145.539V10.5639ZM155.514 28.3399C153.314 28.3399 151.862 26.9099 151.862 24.7759C151.708 21.7619 153.842 20.3759 158.946 20.2219C159.012 19.6939 158.902 19.1659 158.66 18.6599C158.396 18.2859 157.802 18.0879 156.856 18.0879C155.712 18.0879 154.414 18.5279 153.292 19.2539L152.324 16.9439C153.666 16.1299 155.514 15.4919 157.45 15.4919C160.596 15.4919 162.18 17.2959 162.18 20.9259V28.1199H159.54L159.298 26.8659H159.232C158.176 27.7679 156.922 28.3399 155.514 28.3399ZM156.504 25.8759C157.45 25.8539 158.176 25.4579 158.946 24.6879V22.2019C158.176 22.2679 157.428 22.3339 156.724 22.4439C155.316 22.6419 154.81 23.3459 154.832 24.2259C154.854 25.2599 155.558 25.8759 156.504 25.8759ZM167.082 33.0699L168.798 28.1859L164.024 15.7999H167.28L169.238 21.5199C169.612 22.6419 169.92 23.7639 170.272 24.9959H170.382C170.668 23.8519 170.976 22.6639 171.262 21.5199L172.956 15.7999H176.058L171.79 28.4719L170.272 33.0699H167.082Z" fill="#121212"/>
<mask id="mask0_1_404" style="mask-type:alpha" maskUnits="userSpaceOnUse" x="0" y="0" width="42" height="42">
<rect width="41.8627" height="41.8085" fill="#C4C4C4"/>
</mask>
<g mask="url(#mask0_1_404)">
</g>
<g clip-path="url(#clip0_1_404)">
<path d="M23.34 19.1901L28.07 14.4201L12.09 5.87012C11.36 5.48012 10.58 5.42012 9.87 5.60012L23.34 19.2001V19.1901Z" fill="#060303"/>
<path d="M24.75 20.6099L29.92 25.8299L34.51 23.3799C36.71 22.2099 36.71 19.0499 34.51 17.8799L29.91 15.4099L24.75 20.6099Z" fill="#060303"/>
<path d="M8.15 6.70996C7.75 7.22996 7.5 7.87996 7.5 8.61996V32.6C7.5 33.34 7.75 33.99 8.15 34.51L21.93 20.61L8.15 6.70996Z" fill="#060303"/>
<path d="M23.34 22.03L9.86 35.63C10.57 35.81 11.35 35.75 12.09 35.36L28.08 26.82L23.34 22.04V22.03Z" fill="#060303"/>
</g>
<defs>
<clipPath id="clip0_1_404">
<rect width="28.66" height="30.22" fill="white" transform="translate(7.5 5.5)"/>
</clipPath>
</defs>
</svg>
