<svg width="42" height="42" viewBox="0 0 42 42" fill="none" xmlns="http://www.w3.org/2000/svg">
<mask id="mask0_55_25" style="mask-type:alpha" maskUnits="userSpaceOnUse" x="0" y="0" width="42" height="42">
<rect width="41.8627" height="41.8085" fill="#C4C4C4"/>
</mask>
<g mask="url(#mask0_55_25)">
</g>
<g clip-path="url(#clip0_55_25)">
<path d="M23.34 19.1899L28.07 14.4199L12.09 5.86987C11.36 5.47987 10.58 5.41987 9.87 5.59987L23.34 19.1999V19.1899Z" fill="#060303"/>
<path d="M24.75 20.6102L29.92 25.8302L34.51 23.3802C36.71 22.2102 36.71 19.0502 34.51 17.8802L29.91 15.4102L24.75 20.6102Z" fill="#060303"/>
<path d="M8.15 6.70996C7.75 7.22996 7.5 7.87996 7.5 8.61996V32.6C7.5 33.34 7.75 33.99 8.15 34.51L21.93 20.61L8.15 6.70996Z" fill="#060303"/>
<path d="M23.34 22.0298L9.85999 35.6298C10.57 35.8098 11.35 35.7498 12.09 35.3598L28.08 26.8198L23.34 22.0398V22.0298Z" fill="#060303"/>
</g>
<defs>
<clipPath id="clip0_55_25">
<rect width="28.66" height="30.22" fill="white" transform="translate(7.5 5.5)"/>
</clipPath>
</defs>
</svg>
