<svg width="42" height="42" viewBox="0 0 42 42" fill="none" xmlns="http://www.w3.org/2000/svg">
<mask id="mask0_108_10" style="mask-type:alpha" maskUnits="userSpaceOnUse" x="0" y="0" width="42" height="42">
<rect width="41.8627" height="41.8085" fill="#C4C4C4"/>
</mask>
<g mask="url(#mask0_108_10)">
</g>
<g clip-path="url(#clip0_108_10)">
<path d="M30.5506 19.0301C30.5129 14.8547 33.977 12.85 34.13 12.7571C32.1834 9.92007 29.1483 9.52467 28.0717 9.47723C25.4875 9.21824 23.0285 10.9936 21.7215 10.9936C20.4145 10.9936 18.3884 9.52072 16.2512 9.56224C13.4306 9.5998 10.8404 11.1933 9.38843 13.6942C6.46457 18.7434 8.6376 26.2283 11.4919 30.3227C12.8824 32.3273 14.5409 34.5791 16.7199 34.4981C18.8234 34.417 19.618 33.1478 22.1565 33.1478C24.695 33.1478 25.4081 34.4981 27.6308 34.4645C29.8892 34.417 31.3213 32.4123 32.6998 30.4077C34.2968 28.0807 34.9603 25.829 34.998 25.7103C34.9484 25.6925 30.5924 24.0279 30.5487 19.0301H30.5506Z" fill="black"/>
<path d="M26.3734 6.76671C27.5334 5.37293 28.3141 3.43152 28.0995 1.5C26.433 1.56326 24.4129 2.60909 23.2192 3.99694C22.1446 5.23652 21.2011 7.21747 21.4573 9.10748C23.3145 9.24784 25.2194 8.16445 26.3734 6.76671Z" fill="black"/>
</g>
<defs>
<clipPath id="clip0_108_10">
<rect width="27" height="33" fill="white" transform="translate(8 1.5)"/>
</clipPath>
</defs>
</svg>
