<svg width="157" height="42" viewBox="0 0 157 42" fill="none" xmlns="http://www.w3.org/2000/svg">
<path d="M53.105 23.9406L51.961 28.1206H48.661L53.875 11.8406H57.703L62.939 28.1206H59.529L58.385 23.9406H53.105ZM57.197 19.6286C56.691 17.9346 56.273 16.0646 55.767 14.3046H55.679C55.261 16.0866 54.799 17.9346 54.293 19.6286L53.809 21.4106H57.681L57.197 19.6286ZM67.2208 15.8006L67.4408 17.0766H67.5288C68.5628 16.1966 69.8388 15.4926 71.1588 15.4926C74.1948 15.4926 75.9988 17.9786 75.9988 21.7626C75.9988 25.9866 73.4688 28.4286 70.7628 28.4286C69.6848 28.4286 68.6508 27.9446 67.7048 27.0866L67.7928 29.1106V32.8506H64.5808V15.8006H67.2208ZM70.0368 25.7666C71.5328 25.7666 72.6768 24.5346 72.6768 21.8066C72.6768 19.4306 71.9288 18.1546 70.2348 18.1546C69.3768 18.1546 68.6508 18.5726 67.7928 19.4306V24.8426C68.5848 25.5246 69.3548 25.7666 70.0368 25.7666ZM81.379 15.8006L81.599 17.0766H81.687C82.721 16.1966 83.997 15.4926 85.317 15.4926C88.353 15.4926 90.157 17.9786 90.157 21.7626C90.157 25.9866 87.627 28.4286 84.921 28.4286C83.843 28.4286 82.809 27.9446 81.863 27.0866L81.951 29.1106V32.8506H78.739V15.8006H81.379ZM84.195 25.7666C85.691 25.7666 86.835 24.5346 86.835 21.8066C86.835 19.4306 86.087 18.1546 84.393 18.1546C83.535 18.1546 82.809 18.5726 81.951 19.4306V24.8426C82.743 25.5246 83.513 25.7666 84.195 25.7666ZM103.008 28.4286C100.808 28.4286 98.6516 27.5706 97.0676 26.0526L98.9376 23.8086C100.104 24.8866 101.644 25.6126 103.074 25.6126C104.768 25.6126 105.67 24.8866 105.67 23.7426C105.67 22.5106 104.702 22.1806 103.228 21.5426L101.05 20.6186C99.3996 19.9146 97.7496 18.6166 97.7496 16.2406C97.7496 13.5786 100.104 11.5326 103.382 11.5326C105.318 11.5326 107.166 12.2806 108.486 13.6226L106.836 15.6686C105.802 14.8106 104.724 14.3266 103.382 14.3266C101.952 14.3266 101.028 14.9646 101.028 16.0426C101.028 17.1426 102.194 17.6486 103.58 18.1766L105.714 19.0786C107.738 19.8926 108.992 21.1246 108.992 23.5006C108.992 26.1626 106.77 28.4286 103.008 28.4286ZM115.433 28.4286C112.507 28.4286 111.385 26.5806 111.385 23.8086V18.3526H109.647V15.9546L111.539 15.8006L111.913 12.5006H114.619V15.8006H117.655V18.3526H114.619V23.8086C114.619 25.1946 115.169 25.8766 116.291 25.8766C116.709 25.8766 117.171 25.7666 117.501 25.6126L118.029 27.9666C117.347 28.2086 116.511 28.4286 115.433 28.4286ZM124.901 28.4286C121.821 28.4286 118.983 26.0306 118.983 21.9826C118.983 17.8686 121.821 15.4926 124.901 15.4926C127.981 15.4926 130.819 17.8686 130.819 21.9826C130.819 26.0306 127.981 28.4286 124.901 28.4286ZM124.901 25.7886C126.573 25.7886 127.519 24.2926 127.519 21.9826C127.519 19.6066 126.573 18.1326 124.901 18.1326C123.229 18.1326 122.283 19.6066 122.283 21.9826C122.283 24.2926 123.229 25.7886 124.901 25.7886ZM136.164 15.8006L136.384 17.9786H136.472C137.374 16.3726 138.65 15.4926 139.97 15.4926C140.652 15.4926 141.048 15.6026 141.422 15.7566L140.85 18.5506C140.432 18.3966 140.08 18.3526 139.574 18.3526C138.606 18.3526 137.44 18.9906 136.736 20.7726V28.1206H133.524V15.8006H136.164ZM148.452 28.4286C145.02 28.4286 142.336 26.0306 142.336 21.9826C142.336 18.0006 145.152 15.4926 148.078 15.4926C151.466 15.4926 153.226 17.9786 153.226 21.3886C153.226 21.9826 153.16 22.5766 153.072 22.8626H145.482C145.746 24.8866 147.044 25.9426 148.892 25.9426C149.926 25.9426 150.784 25.6346 151.664 25.0846L152.764 27.0646C151.532 27.9226 150.036 28.4286 148.452 28.4286ZM150.454 20.7286C150.454 19.0566 149.706 18.0006 148.122 18.0006C146.824 18.0006 145.68 18.9466 145.438 20.7286H150.454Z" fill="#121212"/>
<mask id="mask0_1_397" style="mask-type:alpha" maskUnits="userSpaceOnUse" x="0" y="0" width="42" height="42">
<rect width="41.8627" height="41.8085" fill="#C4C4C4"/>
</mask>
<g mask="url(#mask0_1_397)">
</g>
<g clip-path="url(#clip0_1_397)">
<path d="M30.5506 19.0301C30.5129 14.8547 33.977 12.85 34.13 12.7571C32.1834 9.92007 29.1483 9.52467 28.0717 9.47723C25.4875 9.21824 23.0285 10.9936 21.7215 10.9936C20.4145 10.9936 18.3884 9.52072 16.2512 9.56224C13.4306 9.5998 10.8404 11.1933 9.38843 13.6942C6.46457 18.7434 8.6376 26.2283 11.4919 30.3227C12.8824 32.3273 14.5409 34.5791 16.7199 34.4981C18.8234 34.417 19.618 33.1478 22.1565 33.1478C24.695 33.1478 25.4081 34.4981 27.6308 34.4645C29.8892 34.417 31.3213 32.4123 32.6998 30.4077C34.2968 28.0807 34.9603 25.829 34.998 25.7103C34.9484 25.6925 30.5924 24.0279 30.5487 19.0301H30.5506Z" fill="black"/>
<path d="M26.3734 6.76671C27.5334 5.37293 28.3141 3.43152 28.0995 1.5C26.433 1.56326 24.4129 2.60909 23.2192 3.99694C22.1446 5.23652 21.2011 7.21747 21.4573 9.10748C23.3145 9.24784 25.2194 8.16445 26.3734 6.76671Z" fill="black"/>
</g>
<defs>
<clipPath id="clip0_1_397">
<rect width="27" height="33" fill="white" transform="translate(8 1.5)"/>
</clipPath>
</defs>
</svg>
